<svg width="107" height="100" viewBox="0 0 107 100" fill="none" xmlns="http://www.w3.org/2000/svg">
<path d="M59.5553 42.204C59.3422 47.1065 59.3422 52.0089 59.5553 56.9114C59.5553 59.8955 61.4737 62.0271 64.0315 61.8139C66.3762 61.8139 68.2945 59.6824 68.2945 56.6983C68.2945 54.3536 68.2945 52.0089 68.2945 49.8774C68.2945 47.5328 68.2945 45.1881 68.2945 42.6303C68.2945 39.433 66.5893 37.5147 64.0315 37.5147C61.4737 37.3015 59.5553 39.0067 59.5553 42.204Z" fill="#0D7CCE"/>
<path d="M48.0459 56.6982C48.0459 59.6823 49.9643 61.8138 52.3089 61.8138C54.8667 61.8138 56.5719 59.8954 56.5719 56.6982C56.5719 52.0088 56.5719 47.1063 56.5719 42.417C56.5719 39.2198 54.8667 37.3014 52.3089 37.3014C49.7511 37.3014 48.0459 39.2198 48.0459 42.417C48.0459 44.7617 48.0459 47.1063 48.0459 49.6642C48.0459 51.7957 48.0459 54.3535 48.0459 56.6982Z" fill="#0D7CCE"/>
<path d="M79.5917 51.5827C79.5917 49.6644 79.5917 47.746 79.5917 45.8276C79.5917 45.6145 79.5917 45.6145 79.5917 45.4013C79.3785 42.8435 77.6733 41.1383 75.1155 41.1383C72.7708 41.1383 70.8525 42.8435 70.8525 45.1882C70.8525 49.2381 70.8525 53.2879 70.8525 57.551C70.8525 60.1088 72.7708 61.814 75.3286 61.814C77.6733 61.814 79.3785 60.1088 79.5917 57.551C79.5917 55.6326 79.5917 53.5011 79.5917 51.5827Z" fill="#0D7CCE"/>
<path d="M36.7484 42.417C41.6509 43.2696 43.1429 46.4669 41.2246 51.5825C40.5851 53.2877 39.3062 54.9929 37.8141 56.2718C36.5352 57.5507 36.7484 58.4033 37.3878 59.6822C38.6667 61.6006 40.372 62.0269 42.0772 61.3875C44.2087 60.748 45.0613 59.0428 45.2744 56.6981C45.2744 52.0088 45.2744 47.3195 45.2744 42.6301C45.2744 39.4329 43.5692 37.3014 41.0114 37.0882C38.4536 36.8751 36.9615 38.7934 36.5352 42.2038C36.5352 42.2038 36.5352 42.417 36.7484 42.417Z" fill="#0D7CCE"/>
<path d="M79.1657 63.519C75.5421 65.8637 72.3448 65.0111 69.787 61.8138C69.787 61.8138 69.5739 61.6006 69.3607 61.8138C65.3108 65.6505 62.1136 65.6505 58.2769 61.8138H58.0637C54.0138 65.8637 51.6692 65.8637 46.7667 61.8138H46.5535C41.8642 66.29 37.1749 65.4374 34.4039 59.256C34.1908 58.6165 33.3382 58.4034 32.4856 57.9771C32.2724 57.9771 32.0593 57.9771 32.0593 58.1902C32.0593 60.5349 32.2724 62.4532 32.0593 64.1585C32.0593 64.5848 31.8461 64.7979 31.633 65.2242C31.4198 65.4374 31.2067 65.4374 30.7803 65.4374C30.354 65.4374 30.1409 65.2242 29.9277 65.0111C29.7146 64.7979 29.5014 64.3716 29.5014 64.1585C29.2883 62.4532 29.5014 60.5349 29.5014 58.8297C29.5014 58.8297 28.4357 58.4034 28.2225 57.5508C28.2225 57.3376 28.2225 57.1245 28.2225 56.9113C28.2225 55.6324 29.2883 55.2061 29.5014 55.2061C30.5672 54.993 31.633 55.2061 32.9119 55.2061C36.1091 54.993 39.0932 52.0088 39.5195 48.3853C39.7327 46.4669 39.3064 45.4011 37.1749 45.6143C33.125 45.8274 29.2883 45.6143 25.2384 45.6143C22.6806 45.6143 22.0412 46.8932 22.4675 50.3036C23.1069 55.6324 23.1069 60.9612 22.4675 66.29C21.828 73.7503 23.7464 79.2922 28.862 82.9158C31.633 84.8341 32.9119 87.8182 32.9119 91.4418C32.9119 93.5733 32.9119 95.4917 32.9119 97.6232C32.9119 99.3284 33.3382 100.181 35.0434 99.9679H72.1317C73.6237 99.9679 74.0501 99.1153 74.0501 97.4101C74.0501 95.0654 74.0501 92.7207 74.0501 90.1629C74.0501 86.5393 75.1158 83.5552 77.6736 81.2106C78.5262 80.3579 79.592 79.079 79.592 77.8001C79.8051 73.1108 79.592 68.4215 79.592 63.519C79.592 63.519 79.3788 63.519 79.1657 63.519Z" fill="#0D7CCE"/>
<path d="M52.7345 15.1337V29.4149C52.7345 30.4806 53.5871 31.3332 54.6529 31.3332C55.7186 31.3332 56.5712 30.4806 56.5712 29.4149V15.3469C59.5554 14.4943 61.9 12.1496 62.3263 8.95235C62.5395 6.82084 62.1132 4.90248 60.8343 3.19727C59.7685 1.49206 57.8502 0.426302 55.9318 0C55.5055 0 55.0792 0 54.866 0C51.0293 0 47.832 2.77097 47.1926 6.60769C46.5531 10.4444 48.8978 14.2811 52.7345 15.1337ZM50.8162 7.24714C51.0293 5.32878 52.7345 4.04987 54.6529 3.83672C54.866 3.83672 55.0792 3.83672 55.2923 3.83672C57.4238 4.04987 58.9159 6.18139 58.4896 8.3129C58.2765 10.2313 56.5712 11.5102 54.6529 11.5102C54.4397 11.5102 54.2266 11.5102 54.0134 11.5102C52.0951 11.297 50.603 9.37865 50.8162 7.24714Z" fill="#0D7CCE"/>
<path d="M104.745 15.1335C103.466 13.4283 101.761 12.3626 99.6287 12.1494C99.2024 12.1494 98.7761 12.1494 98.5629 12.1494C94.7262 12.1494 91.5289 14.9204 90.8895 18.7571C90.6763 20.6755 91.1026 22.807 92.1684 24.299L80.4451 36.0224C79.5925 36.875 79.5925 37.9407 80.4451 38.7933C80.8714 39.2196 81.2977 39.4328 81.724 39.4328C82.1503 39.4328 82.7897 39.2196 83.0029 38.7933L94.7262 27.07V26.8568C95.3657 27.2832 96.2183 27.4963 97.0709 27.7095C97.4972 27.7095 97.9235 27.7095 98.1366 27.7095C101.974 27.7095 105.171 24.9385 105.811 21.1018C106.45 18.9703 106.024 16.8387 104.745 15.1335ZM102.4 20.2492C102.187 22.1675 100.482 23.4464 98.5629 23.4464C98.3498 23.4464 98.1366 23.4464 97.9235 23.4464C95.792 23.2333 94.2999 21.1018 94.7262 18.9703C94.9394 17.0519 96.6446 15.773 98.5629 15.773C98.7761 15.773 98.9892 15.773 99.2024 15.773C101.334 16.1993 102.613 18.3308 102.4 20.2492Z" fill="#0D7CCE"/>
<path d="M23.1066 38.5803C23.5329 39.0066 23.9592 39.2198 24.3855 39.2198C24.8118 39.2198 25.4513 39.0066 25.6644 38.5803C26.517 37.7277 26.517 36.6619 25.6644 35.8093L13.9411 24.086C15.0069 22.594 15.6463 20.6756 15.22 18.5441C15.0069 14.9205 11.5964 11.9364 7.75976 11.9364C7.33346 11.9364 6.90716 11.9364 6.69401 11.9364C2.43098 12.789 -0.553136 16.6257 0.0863175 20.8888C0.72577 24.7255 3.92304 27.4964 7.75976 27.4964C8.18606 27.4964 8.61237 27.4964 8.82552 27.4964C9.67812 27.2833 10.3175 27.0701 11.1701 26.6438V26.857L23.1066 38.5803ZM8.39922 23.6597C8.18606 23.6597 7.97291 23.6597 7.75976 23.6597C5.8414 23.6597 4.13619 22.3808 3.92304 20.4625C3.70989 18.3309 4.9888 16.4126 7.12031 15.9863C7.33346 15.9863 7.54661 15.9863 7.75976 15.9863C9.67812 15.9863 11.3833 17.2652 11.5964 19.1835C12.0227 21.3151 10.5307 23.2334 8.39922 23.6597Z" fill="#0D7CCE"/>
</svg>
