<svg width="1440" height="839" viewBox="0 0 1440 839" fill="none" xmlns="http://www.w3.org/2000/svg">
<path d="M0 0H1440V742.5C1440 742.5 1213.5 838.5 720 838.5C226.5 838.5 0 742.5 0 742.5V0Z" fill="#F5F7FA"/>
<path d="M1123.67 592.389C1121.65 592.641 1119.63 593.147 1117.35 593.399C1116.85 593.399 1116.6 593.399 1116.09 593.399C1113.06 593.652 1109.78 593.905 1106.49 593.905C1104.22 593.905 1101.94 593.905 1099.92 593.905C1095.63 593.652 1091.33 592.894 1087.29 591.884C1057.23 585.821 1039.55 568.39 1028.94 550.454C1019.34 534.034 1015.8 516.856 1014.29 507.761C1014.29 506.498 1013.78 505.235 1013.78 503.972C1013.78 501.951 1013.53 499.93 1013.53 497.909V-7.0769L939.005 28.5424L880.902 56.3306C842.504 74.7718 818 113.675 818 156.115V516.856C818 516.856 821.537 574.958 841.999 615.125C862.714 662.87 892.017 702.531 933.447 732.593C944.562 732.593 955.678 731.582 966.793 730.066C1028.68 720.972 1085.52 687.879 1123.92 638.618C1137.31 621.693 1147.42 603.251 1155.75 583.8C1156.51 581.779 1157.27 579.758 1158.03 577.737C1149.18 583.547 1137.31 589.105 1123.42 591.884L1123.67 592.389Z" fill="#0D7CCE" fill-opacity="0.05"/>
<path d="M1119.63 608.556C1112.81 608.556 1106.24 607.546 1100.43 606.283C1104.47 607.293 1108.76 607.799 1113.06 608.304C1115.33 608.304 1117.61 608.304 1119.63 608.304V608.556Z" fill="#0D7CCE" fill-opacity="0.05"/>
<path d="M1371.24 -72L1282.57 -28.0442L1260.84 -17.1816C1216.89 4.54366 1189.1 49.5099 1189.1 98.518V505.235C1188.85 519.129 1187.58 532.771 1185.31 546.412C1181.52 563.338 1176.72 578.747 1171.41 592.894C1170.66 594.915 1169.9 596.936 1169.14 598.957C1160.8 618.409 1150.45 636.85 1137.31 653.775C1098.91 703.036 1041.82 736.129 980.182 745.223C969.066 746.739 957.951 747.75 946.836 747.75C946.836 747.75 946.583 747.75 946.331 747.75C945.573 747.75 945.32 747.75 945.32 747.75C945.573 747.75 945.825 747.75 946.331 747.75C946.331 747.75 946.331 748.002 946.331 748.255C965.277 761.644 986.245 772.759 1008.48 780.843C1039.55 792.463 1073.15 798.526 1108.51 797.768C1256.04 794.484 1372.25 669.69 1372.25 522.161V-71.4948C1372.25 -71.4948 1371.99 -72 1371.74 -71.7474L1371.24 -72Z" fill="#0D7CCE" fill-opacity="0.05"/>
<path d="M1421.51 -40.17L1385.64 -22.9919V522.161C1385.64 577.99 1368.96 630.787 1340.16 674.743C1340.16 674.743 1287.62 777.306 1135.04 808.631C1139.33 808.631 1143.88 808.884 1148.17 808.884C1321.98 808.884 1462.68 661.607 1462.68 480.226V-60.127L1421.51 -40.4226V-40.17Z" fill="#0D7CCE" fill-opacity="0.05"/>
</svg>
