<svg width="116" height="100" viewBox="0 0 116 100" fill="none" xmlns="http://www.w3.org/2000/svg">
<path d="M51.1766 55.2942C51.1766 55.4903 51.1766 55.6864 51.1766 56.0786H48.2354C47.059 56.0786 46.0786 55.4903 45.2943 54.706C44.5099 53.7256 44.5099 52.5491 44.9021 51.3727C45.2943 50.3923 46.2746 50.0001 46.8629 50.0001H47.059C49.608 50.0001 50.9805 53.5295 51.1766 55.2942Z" fill="#0D7CCE"/>
<path d="M59.9996 60H55.0977V87.2549H59.9996V60Z" fill="#0D7CCE"/>
<path d="M67.0592 56.0786H63.9219C63.9219 55.8825 63.9219 55.6864 63.9219 55.2942C64.118 53.5295 65.2944 50.0001 68.0395 50.0001H68.2356C68.8239 50.0001 69.8043 50.3923 70.1964 51.3727C70.5886 52.5491 70.5886 53.7256 69.8043 54.706C69.216 55.4903 68.0395 56.0786 67.0592 56.0786Z" fill="#0D7CCE"/>
<path d="M82.7454 61.5687C81.765 64.1177 80.1964 66.4707 78.0395 69.4119C77.4512 70.0001 77.0591 70.7844 76.4708 71.3727C75.2944 72.7452 74.314 74.1178 73.3336 75.4903C71.961 77.6472 71.1767 80.0001 70.3924 82.9413V83.1374C70.0003 84.9021 69.6081 87.0589 66.863 87.0589H63.9218V60.0001H66.863C69.2159 60.0001 71.3728 58.8236 72.9414 57.0589C74.5101 55.0981 74.9022 52.5491 73.9218 50.0001C73.1375 47.6471 70.9806 46.2746 68.6277 46.0785C68.4316 46.0785 68.4316 46.0785 68.2356 46.0785C63.5297 46.0785 60.9806 50.3922 60.3924 54.706C60.3924 55.0981 60.3924 55.4903 60.1963 55.8824H55.2944C55.2944 55.4903 55.2944 55.0981 55.0983 54.706C54.51 50.3922 51.7649 46.0785 47.2551 46.0785C47.059 46.0785 47.059 46.0785 46.863 46.0785C44.3139 46.2746 42.3532 47.6471 41.5688 50.0001C40.5885 52.353 40.9806 54.902 42.5492 57.0589C43.9218 58.8236 46.2747 60.0001 48.6277 60.0001H51.5689V87.255H48.6277C45.8826 87.255 45.4904 84.9021 45.0983 83.3335V83.1374C44.3139 80.1962 43.7257 77.8432 42.1571 75.6864C41.1767 74.3138 40.1963 72.9413 39.0198 71.5687C38.4316 70.9805 38.0394 70.1962 37.4512 69.6079C35.2943 66.6668 33.7257 64.3138 32.7453 61.7648C28.8237 52.7452 31.1767 41.9608 38.8237 33.9216C43.9218 28.4314 50.7845 25.4902 58.0395 25.4902C65.2944 25.4902 72.3532 28.4314 77.2552 33.9216C84.314 41.7648 86.6669 52.7452 82.7454 61.5687Z" fill="#0D7CCE"/>
<path d="M66.0787 89.4116H49.0198C47.2551 89.4116 45.6865 90.9803 45.6865 92.745C45.6865 94.5097 47.2551 96.0783 49.0198 96.0783H49.412C49.412 96.2744 49.412 96.4705 49.412 96.6666C49.412 98.4313 50.9806 99.9999 52.7453 99.9999H62.5493C64.314 99.9999 65.8826 98.4313 65.8826 96.6666C65.8826 96.4705 65.8826 96.2744 65.8826 96.0783H66.2748C68.0395 96.0783 69.6081 94.5097 69.6081 92.745C69.6081 90.9803 68.0395 89.4116 66.0787 89.4116Z" fill="#0D7CCE"/>
<path d="M57.6471 18.8236C56.4706 18.8236 55.4902 17.8432 55.4902 16.6667V2.15687C55.4902 0.980393 56.4706 0 57.6471 0C58.8236 0 59.804 0.980393 59.804 2.15687V16.4706C59.804 17.8432 58.8236 18.8236 57.6471 18.8236Z" fill="#0D7CCE"/>
<path d="M15.4898 90.1962C14.9016 90.1962 14.3134 90.0001 13.9212 89.4118C13.1369 88.4314 13.1369 87.0589 14.1173 86.2746L24.7055 76.6667C25.6859 75.8824 27.0585 75.8824 27.8428 76.8628C28.6271 77.8432 28.6271 79.2157 27.6467 80.0001L17.0585 89.6079C16.6663 90.0001 16.0781 90.1962 15.4898 90.1962Z" fill="#0D7CCE"/>
<path d="M99.6082 90.1962C99.0199 90.1962 98.6278 90.0001 98.0395 89.6079L87.4513 80.0001C86.4709 79.2157 86.4709 77.8432 87.2552 76.8628C88.0395 75.8824 89.4121 75.8824 90.3925 76.6667L100.981 86.2746C101.961 87.0589 101.961 88.4314 101.177 89.4118C100.784 90.0001 100.196 90.1962 99.6082 90.1962Z" fill="#0D7CCE"/>
<path d="M113.137 54.3139H98.8239C97.6474 54.3139 96.667 53.3335 96.667 52.157C96.667 50.9805 97.6474 50.0001 98.8239 50.0001H113.137C114.314 50.0001 115.294 50.9805 115.294 52.157C115.294 53.3335 114.314 54.3139 113.137 54.3139Z" fill="#0D7CCE"/>
<path d="M16.4706 54.7061H2.15687C0.980393 54.7061 0 53.7257 0 52.5492C0 51.3727 0.980393 50.3923 2.15687 50.3923H16.4706C17.6471 50.3923 18.6275 51.3727 18.6275 52.5492C18.6275 53.7257 17.6471 54.7061 16.4706 54.7061Z" fill="#0D7CCE"/>
<path d="M84.7058 29.0198C84.1175 29.0198 83.7253 28.8237 83.3331 28.4315C82.3527 27.6472 82.3527 26.2747 83.137 25.2943L92.5489 14.3139C93.3332 13.3335 94.7058 13.3335 95.6862 14.1178C96.6666 14.9021 96.6666 16.2746 95.8823 17.255L86.4705 28.2354C85.8822 28.8237 85.294 29.0198 84.7058 29.0198Z" fill="#0D7CCE"/>
<path d="M30.3919 29.0197C29.8036 29.0197 29.2154 28.8236 28.6271 28.2354L19.4115 17.255C18.6271 16.2746 18.6271 14.902 19.6075 14.1177C20.5879 13.3334 21.9605 13.5295 22.7448 14.3138L32.1566 25.2942C32.9409 26.2746 32.9409 27.6471 31.9605 28.4314C31.5683 28.8236 30.9801 29.0197 30.3919 29.0197Z" fill="#0D7CCE"/>
</svg>
