<svg width="67" height="100" viewBox="0 0 67 100" fill="none" xmlns="http://www.w3.org/2000/svg">
<path d="M50.2511 65.7125C45.0971 64.2093 40.158 62.7061 35.0041 61.2028C35.0041 60.5586 35.0041 59.9144 35.2188 59.2701C35.863 54.1162 36.2925 48.9623 36.9368 43.8084C37.1515 42.3051 36.722 41.2314 35.4335 40.1577C33.2861 38.6545 29.2059 38.8692 28.3469 42.7346C26.6289 51.9687 24.4815 61.2028 22.7635 70.4369C22.334 72.3697 21.475 73.2286 19.5423 73.4434C17.6096 73.6581 16.9653 72.5844 16.3211 70.8664C15.4621 67.86 14.3884 65.0683 13.5294 62.2766C12.6704 59.9144 10.5229 58.8406 8.1607 59.6996C6.01323 60.3439 4.9395 62.2766 5.79849 64.6388C6.22798 66.5715 6.87222 68.5042 7.51646 70.4369C9.87867 78.5973 12.2409 86.7577 14.6031 94.7033C15.8916 98.9982 18.2538 100.501 22.5488 99.8572C24.052 99.6425 25.3405 99.4277 26.8437 99.213C31.5681 98.5687 36.2925 97.9245 41.017 97.2803C45.0971 96.636 48.1036 94.7033 49.3921 90.4084C51.11 84.6102 53.0428 79.0268 54.9755 73.4434C55.6197 69.578 54.3312 67.001 50.2511 65.7125Z" fill="#0D7CCE"/>
<path d="M59.6996 11.5963C55.4046 11.5963 51.9687 15.0323 51.9687 19.3272C51.9687 20.8304 52.3982 22.3336 53.2572 23.6221L44.4526 32.4267C44.2378 32.212 44.0231 31.9972 44.0231 31.7825C41.6609 29.4203 38.6544 27.917 35.4332 27.2728V15.247C38.8692 14.388 41.4461 11.3816 41.4461 7.73088C41.4461 3.43594 38.0102 0 33.7152 0C29.4203 0 25.7696 3.2212 25.7696 7.51613C25.7696 11.1668 28.1318 13.9585 31.353 15.0323V26.8433C27.7023 27.0581 24.2664 28.3465 21.2599 30.7088L14.1733 23.4074C15.0323 22.1189 15.6765 20.6157 15.6765 18.8977C15.6765 14.6028 12.2406 11.1668 7.94562 11.1668C3.65069 11.1668 0 14.6028 0 18.8977C0 23.1926 3.43594 26.6286 7.73087 26.6286C9.01935 26.6286 10.0931 26.4138 11.1669 25.7696L18.683 33.2857C17.1798 35.2184 16.3208 37.1511 15.6765 39.5134C15.4618 40.5871 16.106 41.6608 17.1798 41.8756C18.2535 42.0903 19.3272 41.4461 19.542 40.3723C20.1862 38.0101 21.2599 36.0774 22.9779 34.3594C25.3401 31.9972 28.5613 30.494 31.9973 30.494C35.4332 30.494 38.6544 31.7825 41.0166 34.3594C43.5936 36.9364 45.0968 40.8018 44.6673 44.4525C44.6673 45.5263 45.3116 46.3852 46.3853 46.6C46.3853 46.6 46.3853 46.6 46.6 46.6C47.6738 46.6 48.5328 45.741 48.5328 44.882C48.7475 41.6608 48.1033 38.2249 46.3853 35.4332L55.6194 26.1991C56.6931 26.8433 57.9816 27.2728 59.2701 27.2728C63.565 27.2728 67.001 23.8369 67.001 19.5419C67.001 15.247 63.9945 11.5963 59.6996 11.5963ZM3.86544 18.8977C3.86544 16.7502 5.58341 15.0323 7.73087 15.0323C9.87836 15.0323 11.5964 16.7502 11.5964 18.8977C11.5964 21.0452 9.87836 22.7631 7.73087 22.7631C5.58341 22.7631 3.86544 21.0452 3.86544 18.8977ZM29.6351 7.51613C29.6351 5.36866 31.353 3.65069 33.5005 3.65069C35.648 3.65069 37.3659 5.36866 37.3659 7.51613C37.3659 9.66359 35.648 11.3816 33.5005 11.3816C31.353 11.5963 29.6351 9.66359 29.6351 7.51613ZM59.6996 23.1926C57.5521 23.1926 55.8341 21.4747 55.8341 19.3272C55.8341 17.1797 57.5521 15.4618 59.6996 15.4618C61.847 15.4618 63.565 17.1797 63.565 19.3272C63.565 21.4747 61.847 23.1926 59.6996 23.1926Z" fill="#0D7CCE"/>
</svg>
