<svg width="18" height="16" viewBox="0 0 18 16" fill="none" xmlns="http://www.w3.org/2000/svg">
<path d="M9 4.44445C9.57143 2.17829 11.7296 1.02117 16.4286 1C16.5037 0.999719 16.5781 1.01437 16.6476 1.04312C16.717 1.07187 16.7801 1.11415 16.8333 1.16751C16.8864 1.22088 16.9285 1.28427 16.9571 1.35405C16.9857 1.42383 17.0003 1.49861 17 1.57408V11.9074C17 12.0597 16.9398 12.2057 16.8326 12.3133C16.7255 12.421 16.5801 12.4815 16.4286 12.4815C11.8571 12.4815 10.0911 13.4075 9 14.7778M9 4.44445C8.42857 2.17829 6.27036 1.02117 1.57143 1C1.49631 0.999719 1.42188 1.01437 1.35242 1.04312C1.28296 1.07187 1.21986 1.11415 1.16674 1.16751C1.11362 1.22088 1.07154 1.28427 1.04292 1.35405C1.01431 1.42383 0.999721 1.49861 1 1.57408V11.8382C1 12.1927 1.21858 12.4815 1.57143 12.4815C6.14286 12.4815 7.91536 13.4144 9 14.7778M9 4.44445V14.7778" stroke="#0A0A0A" stroke-width="2" stroke-linecap="round" stroke-linejoin="round"/>
</svg>
