<svg width="285" height="48" viewBox="0 0 285 48" fill="none" xmlns="http://www.w3.org/2000/svg">
<path d="M203.464 18.0296V8.10609H206.82V17.7388C206.82 18.8535 207.341 19.7865 209.122 19.7865C210.903 19.7865 211.424 18.8414 211.424 17.7388V8.10609H214.781V18.0296C214.781 21.1678 212.357 23.058 209.122 23.058C205.899 23.058 203.464 21.1799 203.464 18.0296Z" fill="white"/>
<path d="M227.636 8.10609V22.7672H225.128L219.469 14.8066V22.7672H216.113V8.10609H218.621L224.28 16.0667V8.10609H227.636Z" fill="white"/>
<path d="M238.202 20.465H232.762L232.035 22.7672H228.375L233.355 8.10609H237.632L242.612 22.7672H238.953L238.202 20.465ZM237.196 17.3147L235.476 11.9349L233.755 17.3147H237.196Z" fill="white"/>
<path d="M242.697 14.4673H247.265V17.4844H242.697V14.4673Z" fill="white"/>
<path d="M247.932 19.4351L250.827 17.763C251.348 18.9746 252.257 19.7986 253.905 19.7986C255.492 19.7986 255.892 19.1685 255.892 18.6111C255.892 17.7145 255.056 17.351 252.851 16.7452C250.67 16.1393 248.537 15.0852 248.537 12.2863C248.537 9.4631 250.924 7.82736 253.457 7.82736C255.868 7.82736 257.746 8.97844 258.812 11.1352L255.989 12.7952C255.492 11.7531 254.802 11.0988 253.457 11.0988C252.415 11.0988 251.882 11.6199 251.882 12.2136C251.882 12.88 252.233 13.3404 254.523 14.0311C256.74 14.6975 259.236 15.4729 259.236 18.5748C259.236 21.3979 256.97 23.0822 253.796 23.0822C250.706 23.0579 248.743 21.5918 247.932 19.4351Z" fill="white"/>
<path d="M260.581 18.0296V8.10609H263.937V17.7388C263.937 18.8535 264.458 19.7865 266.239 19.7865C268.02 19.7865 268.542 18.8414 268.542 17.7388V8.10609H271.898V18.0296C271.898 21.1678 269.462 23.058 266.239 23.058C263.004 23.058 260.581 21.1799 260.581 18.0296Z" fill="white"/>
<path d="M272.855 19.4351L275.751 17.763C276.272 18.9746 277.181 19.7986 278.829 19.7986C280.416 19.7986 280.816 19.1685 280.816 18.6111C280.816 17.7145 279.98 17.351 277.775 16.7452C275.594 16.1393 273.461 15.0852 273.461 12.2863C273.461 9.4631 275.848 7.82736 278.38 7.82736C280.792 7.82736 282.67 8.97844 283.736 11.1352L280.913 12.7952C280.416 11.7531 279.725 11.0988 278.38 11.0988C277.338 11.0988 276.805 11.6199 276.805 12.2136C276.805 12.88 277.157 13.3404 279.447 14.0311C281.664 14.6975 284.16 15.4729 284.16 18.5748C284.16 21.3979 281.894 23.0822 278.72 23.0822C275.642 23.0579 273.679 21.5918 272.855 19.4351Z" fill="white"/>
<path d="M203.464 35.3805V25.457H206.82V35.0897C206.82 36.2044 207.341 37.1374 209.122 37.1374C210.903 37.1374 211.424 36.1923 211.424 35.0897V25.457H214.781V35.3805C214.781 38.5187 212.357 40.4089 209.122 40.4089C205.899 40.4089 203.464 38.5308 203.464 35.3805Z" fill="white"/>
<path d="M219.458 28.68V31.5032H224.898V34.7262H219.458V40.1059H216.101V25.4449H225.007V28.6679H219.458V28.68Z" fill="white"/>
<path d="M240.989 40.1181H237.633V31.6001L233.84 37.8159H233.464L229.672 31.6001V40.1181H226.316V25.457H229.672L233.646 31.9757L237.62 25.457H240.977V40.1181H240.989Z" fill="white"/>
<path d="M251.87 37.8159H246.429L245.702 40.1181H242.043L247.023 25.457H251.3L256.28 40.1181H252.621L251.87 37.8159ZM250.864 34.6777L249.143 29.2979L247.423 34.6777H250.864Z" fill="white"/>
<path d="M182.49 33.0782C182.381 33.1025 182.284 33.1146 182.175 33.1267C182.151 33.1267 182.139 33.1267 182.115 33.1388C181.957 33.1509 181.8 33.1631 181.642 33.1631C181.533 33.1631 181.424 33.1631 181.315 33.1509C181.097 33.1388 180.891 33.1025 180.685 33.054C179.195 32.7511 178.31 31.8908 177.777 30.9942C177.292 30.1703 177.123 29.3221 177.05 28.8617C177.038 28.8011 177.026 28.7405 177.026 28.6678C177.026 28.5709 177.014 28.4739 177.014 28.3649V21.9189V3.23508L173.306 5.01622L170.41 6.40963C168.496 7.33049 167.284 9.25703 167.284 11.3774V21.7371V22.9003V25.7841V28.4982V29.3342C167.284 29.3342 167.466 32.218 168.471 34.2293C169.501 36.6042 170.967 38.5792 173.027 40.0816C173.585 40.0816 174.142 40.0332 174.687 39.9605C177.765 39.5122 180.6 37.8643 182.515 35.4168C183.181 34.5686 183.69 33.6598 184.102 32.6905C184.138 32.5936 184.174 32.4845 184.211 32.3876C183.775 32.6542 183.193 32.945 182.49 33.0782Z" fill="white"/>
<path d="M182.296 33.8779C181.957 33.8658 181.63 33.8295 181.339 33.7689C181.545 33.8174 181.751 33.8537 181.969 33.8658C182.078 33.8658 182.187 33.8779 182.296 33.8779Z" fill="white"/>
<path d="M194.812 0L190.402 2.1931L189.324 2.72623C187.131 3.81673 185.749 6.04618 185.749 8.49373V8.72395V13.1102C185.749 17.4964 185.749 21.8705 185.749 26.2567V28.7406C185.737 29.4312 185.677 30.1097 185.555 30.7883C185.362 31.6243 185.131 32.3877 184.853 33.1025C184.816 33.1995 184.78 33.3085 184.744 33.4054C184.332 34.3748 183.823 35.2835 183.156 36.1317C181.242 38.5792 178.407 40.2271 175.329 40.6754C174.784 40.7602 174.226 40.7966 173.669 40.7966C173.657 40.7966 173.657 40.7966 173.645 40.7966C173.608 40.7966 173.596 40.7966 173.596 40.7966C173.608 40.7966 173.621 40.8087 173.645 40.8087C173.645 40.8208 173.645 40.8208 173.645 40.8329C174.59 41.4993 175.632 42.0446 176.747 42.4565C178.298 43.026 179.97 43.3411 181.727 43.2926C189.069 43.123 194.849 36.9193 194.849 29.5645V2.43544V0.0242332C194.849 0 194.825 0 194.812 0Z" fill="white"/>
<path d="M197.321 1.57516L195.527 2.43544V29.5766C195.527 32.3634 194.691 34.9806 193.261 37.1737C193.261 37.1737 190.644 42.2748 183.047 43.8378C183.265 43.85 183.483 43.8621 183.701 43.8621C192.353 43.8621 199.368 36.5315 199.368 27.5047V0.593716L197.321 1.57516Z" fill="white"/>
<path d="M2.91019 45.6242H0.820144V38.8514H3.00278C3.65978 38.8514 4.22198 38.987 4.68937 39.2581C5.15676 39.5271 5.51503 39.914 5.76416 40.4189C6.01329 40.9216 6.13785 41.5234 6.13785 42.2245C6.13785 42.93 6.01218 43.5374 5.76085 44.0467C5.50951 44.5538 5.14354 44.944 4.66291 45.2174C4.18229 45.4886 3.59805 45.6242 2.91019 45.6242ZM1.64029 44.8966H2.85728C3.41727 44.8966 3.88135 44.7886 4.24954 44.5725C4.61772 44.3565 4.8922 44.0489 5.07299 43.6499C5.25377 43.2508 5.34416 42.7757 5.34416 42.2245C5.34416 41.6778 5.25487 41.2071 5.07629 40.8124C4.89771 40.4156 4.63095 40.1113 4.27599 39.8997C3.92104 39.6858 3.479 39.5789 2.94987 39.5789H1.64029V44.8966ZM9.53748 45.73C9.04804 45.73 8.62584 45.622 8.27089 45.4059C7.91814 45.1876 7.64586 44.8834 7.45405 44.4932C7.26445 44.1007 7.16964 43.6444 7.16964 43.1241C7.16964 42.6037 7.26445 42.1452 7.45405 41.7483C7.64586 41.3493 7.91262 41.0384 8.25435 40.8157C8.59828 40.5909 8.99953 40.4784 9.45811 40.4784C9.72267 40.4784 9.98393 40.5225 10.2419 40.6107C10.4998 40.6989 10.7346 40.8422 10.9463 41.0406C11.1579 41.2368 11.3266 41.497 11.4522 41.8211C11.5779 42.1452 11.6408 42.5442 11.6408 43.0182V43.3489H7.72523V42.6743H10.8471C10.8471 42.3877 10.7897 42.1319 10.6751 41.9071C10.5627 41.6822 10.4017 41.5047 10.1923 41.3746C9.98503 41.2446 9.74031 41.1795 9.45811 41.1795C9.14725 41.1795 8.87828 41.2567 8.65119 41.411C8.42632 41.5631 8.25325 41.7616 8.13199 42.0063C8.01073 42.251 7.9501 42.5134 7.9501 42.7933V43.2431C7.9501 43.6267 8.01624 43.9519 8.14853 44.2187C8.28301 44.4832 8.46931 44.685 8.70741 44.8239C8.94552 44.9606 9.22221 45.0289 9.53748 45.0289C9.74251 45.0289 9.92771 45.0002 10.0931 44.9429C10.2606 44.8834 10.405 44.7952 10.5263 44.6784C10.6475 44.5593 10.7412 44.4116 10.8074 44.2352L11.5614 44.4469C11.482 44.7026 11.3486 44.9275 11.1612 45.1215C10.9738 45.3133 10.7423 45.4632 10.4668 45.5713C10.1912 45.6771 9.88141 45.73 9.53748 45.73ZM16.426 41.6822L15.7249 41.8806C15.6808 41.7638 15.6158 41.6502 15.5298 41.54C15.446 41.4275 15.3314 41.3349 15.1859 41.2622C15.0404 41.1894 14.8541 41.1531 14.627 41.1531C14.3161 41.1531 14.0571 41.2247 13.8498 41.368C13.6448 41.5091 13.5423 41.6888 13.5423 41.9071C13.5423 42.1011 13.6128 42.2543 13.7539 42.3667C13.895 42.4792 14.1155 42.5729 14.4153 42.6478L15.1694 42.833C15.6235 42.9433 15.9619 43.1119 16.1846 43.339C16.4073 43.5639 16.5186 43.8538 16.5186 44.2088C16.5186 44.4998 16.4348 44.7599 16.2673 44.9892C16.1019 45.2185 15.8704 45.3993 15.5728 45.5316C15.2752 45.6639 14.929 45.73 14.5344 45.73C14.0163 45.73 13.5875 45.6176 13.248 45.3927C12.9084 45.1678 12.6935 44.8393 12.6031 44.4072L13.3439 44.222C13.4144 44.4954 13.5478 44.7004 13.744 44.8371C13.9424 44.9738 14.2015 45.0421 14.5212 45.0421C14.8849 45.0421 15.1738 44.965 15.3876 44.8106C15.6037 44.6541 15.7117 44.4667 15.7117 44.2484C15.7117 44.0721 15.65 43.9244 15.5265 43.8053C15.403 43.684 15.2134 43.5937 14.9577 43.5341L14.1111 43.3357C13.6459 43.2255 13.3042 43.0546 13.0859 42.8231C12.8699 42.5894 12.7618 42.2973 12.7618 41.9467C12.7618 41.6601 12.8423 41.4066 13.0032 41.1861C13.1664 40.9657 13.388 40.7926 13.668 40.6669C13.9502 40.5413 14.2698 40.4784 14.627 40.4784C15.1297 40.4784 15.5243 40.5887 15.8109 40.8091C16.0997 41.0296 16.3048 41.3206 16.426 41.6822ZM19.8232 45.73C19.3337 45.73 18.9115 45.622 18.5566 45.4059C18.2038 45.1876 17.9316 44.8834 17.7397 44.4932C17.5501 44.1007 17.4553 43.6444 17.4553 43.1241C17.4553 42.6037 17.5501 42.1452 17.7397 41.7483C17.9316 41.3493 18.1983 41.0384 18.54 40.8157C18.884 40.5909 19.2852 40.4784 19.7438 40.4784C20.0084 40.4784 20.2696 40.5225 20.5276 40.6107C20.7855 40.6989 21.0203 40.8422 21.232 41.0406C21.4436 41.2368 21.6123 41.497 21.7379 41.8211C21.8636 42.1452 21.9264 42.5442 21.9264 43.0182V43.3489H18.0109V42.6743H21.1328C21.1328 42.3877 21.0754 42.1319 20.9608 41.9071C20.8484 41.6822 20.6874 41.5047 20.478 41.3746C20.2707 41.2446 20.026 41.1795 19.7438 41.1795C19.4329 41.1795 19.164 41.2567 18.9369 41.411C18.712 41.5631 18.5389 41.7616 18.4177 42.0063C18.2964 42.251 18.2358 42.5134 18.2358 42.7933V43.2431C18.2358 43.6267 18.3019 43.9519 18.4342 44.2187C18.5687 44.4832 18.755 44.685 18.9931 44.8239C19.2312 44.9606 19.5079 45.0289 19.8232 45.0289C20.0282 45.0289 20.2134 45.0002 20.3788 44.9429C20.5463 44.8834 20.6907 44.7952 20.812 44.6784C20.9332 44.5593 21.0269 44.4116 21.0931 44.2352L21.8471 44.4469C21.7677 44.7026 21.6343 44.9275 21.4469 45.1215C21.2595 45.3133 21.028 45.4632 20.7524 45.5713C20.4769 45.6771 20.1671 45.73 19.8232 45.73ZM23.8941 42.5685V45.6242H23.1137V40.5446H23.8677V41.3383H23.9338C24.0529 41.0803 24.2336 40.8731 24.4762 40.7165C24.7187 40.5578 25.0317 40.4784 25.4154 40.4784C25.7593 40.4784 26.0602 40.549 26.3182 40.6901C26.5761 40.829 26.7768 41.0406 26.9201 41.325C27.0634 41.6072 27.135 41.9644 27.135 42.3965V45.6242H26.3546V42.4494C26.3546 42.0504 26.2509 41.7395 26.0437 41.5168C25.8365 41.292 25.5521 41.1795 25.1905 41.1795C24.9414 41.1795 24.7187 41.2335 24.5225 41.3416C24.3285 41.4496 24.1752 41.6072 24.0628 41.8145C23.9503 42.0217 23.8941 42.273 23.8941 42.5685ZM32.5329 40.5446L30.6545 45.6242H29.8608L27.9824 40.5446H28.829L30.2312 44.5924H30.2841L31.6863 40.5446H32.5329ZM35.4448 45.73C34.9862 45.73 34.5838 45.6209 34.2377 45.4026C33.8938 45.1843 33.6248 44.879 33.4308 44.4865C33.239 44.0941 33.1431 43.6355 33.1431 43.1108C33.1431 42.5817 33.239 42.1198 33.4308 41.7252C33.6248 41.3305 33.8938 41.0241 34.2377 40.8058C34.5838 40.5876 34.9862 40.4784 35.4448 40.4784C35.9033 40.4784 36.3046 40.5876 36.6485 40.8058C36.9947 41.0241 37.2636 41.3305 37.4554 41.7252C37.6494 42.1198 37.7465 42.5817 37.7465 43.1108C37.7465 43.6355 37.6494 44.0941 37.4554 44.4865C37.2636 44.879 36.9947 45.1843 36.6485 45.4026C36.3046 45.6209 35.9033 45.73 35.4448 45.73ZM35.4448 45.0289C35.7931 45.0289 36.0797 44.9396 36.3046 44.761C36.5295 44.5825 36.6959 44.3477 36.804 44.0566C36.912 43.7656 36.966 43.4503 36.966 43.1108C36.966 42.7713 36.912 42.4549 36.804 42.1617C36.6959 41.8685 36.5295 41.6315 36.3046 41.4507C36.0797 41.2699 35.7931 41.1795 35.4448 41.1795C35.0964 41.1795 34.8098 41.2699 34.5849 41.4507C34.3601 41.6315 34.1936 41.8685 34.0856 42.1617C33.9775 42.4549 33.9235 42.7713 33.9235 43.1108C33.9235 43.4503 33.9775 43.7656 34.0856 44.0566C34.1936 44.3477 34.3601 44.5825 34.5849 44.761C34.8098 44.9396 35.0964 45.0289 35.4448 45.0289ZM39.7183 38.8514V45.6242H38.9378V38.8514H39.7183ZM45.3014 40.5446L43.423 45.6242H42.6293L40.7509 40.5446H41.5975L42.9997 44.5924H43.0526L44.4548 40.5446H45.3014ZM46.3315 45.6242V40.5446H47.112V45.6242H46.3315ZM46.7284 39.698C46.5762 39.698 46.4451 39.6462 46.3348 39.5425C46.2268 39.4389 46.1728 39.3144 46.1728 39.1688C46.1728 39.0233 46.2268 38.8988 46.3348 38.7951C46.4451 38.6915 46.5762 38.6397 46.7284 38.6397C46.8805 38.6397 47.0106 38.6915 47.1186 38.7951C47.2288 38.8988 47.2839 39.0233 47.2839 39.1688C47.2839 39.3144 47.2288 39.4389 47.1186 39.5425C47.0106 39.6462 46.8805 39.698 46.7284 39.698ZM50.4595 45.73C50.0362 45.73 49.6625 45.6231 49.3384 45.4092C49.0143 45.1932 48.7608 44.8889 48.5778 44.4965C48.3948 44.1018 48.3033 43.6355 48.3033 43.0976C48.3033 42.5641 48.3948 42.1011 48.5778 41.7086C48.7608 41.3162 49.0154 41.0131 49.3417 40.7992C49.668 40.5854 50.045 40.4784 50.4727 40.4784C50.8034 40.4784 51.0647 40.5335 51.2565 40.6438C51.4505 40.7518 51.5982 40.8753 51.6996 41.0142C51.8033 41.1509 51.8837 41.2633 51.9411 41.3515H52.0072V38.8514H52.7877V45.6242H52.0337V44.8437H51.9411C51.8837 44.9363 51.8022 45.0532 51.6963 45.1943C51.5905 45.3331 51.4395 45.4577 51.2433 45.5679C51.0471 45.676 50.7858 45.73 50.4595 45.73ZM50.5653 45.0289C50.8784 45.0289 51.143 44.9473 51.359 44.7842C51.5751 44.6188 51.7393 44.3906 51.8518 44.0996C51.9642 43.8064 52.0204 43.468 52.0204 43.0844C52.0204 42.7052 51.9653 42.3734 51.8551 42.089C51.7448 41.8023 51.5817 41.5797 51.3656 41.4209C51.1496 41.26 50.8828 41.1795 50.5653 41.1795C50.2346 41.1795 49.959 41.2644 49.7386 41.4342C49.5203 41.6017 49.3561 41.8299 49.2458 42.1187C49.1378 42.4053 49.0838 42.7272 49.0838 43.0844C49.0838 43.4459 49.1389 43.7744 49.2491 44.0699C49.3616 44.3631 49.5269 44.5968 49.7452 44.771C49.9657 44.9429 50.239 45.0289 50.5653 45.0289ZM56.389 45.73C55.9304 45.73 55.5281 45.6209 55.182 45.4026C54.838 45.1843 54.569 44.879 54.375 44.4865C54.1832 44.0941 54.0873 43.6355 54.0873 43.1108C54.0873 42.5817 54.1832 42.1198 54.375 41.7252C54.569 41.3305 54.838 41.0241 55.182 40.8058C55.5281 40.5876 55.9304 40.4784 56.389 40.4784C56.8476 40.4784 57.2488 40.5876 57.5928 40.8058C57.9389 41.0241 58.2079 41.3305 58.3997 41.7252C58.5937 42.1198 58.6907 42.5817 58.6907 43.1108C58.6907 43.6355 58.5937 44.0941 58.3997 44.4865C58.2079 44.879 57.9389 45.1843 57.5928 45.4026C57.2488 45.6209 56.8476 45.73 56.389 45.73ZM56.389 45.0289C56.7374 45.0289 57.024 44.9396 57.2488 44.761C57.4737 44.5825 57.6402 44.3477 57.7482 44.0566C57.8562 43.7656 57.9103 43.4503 57.9103 43.1108C57.9103 42.7713 57.8562 42.4549 57.7482 42.1617C57.6402 41.8685 57.4737 41.6315 57.2488 41.4507C57.024 41.2699 56.7374 41.1795 56.389 41.1795C56.0407 41.1795 55.7541 41.2699 55.5292 41.4507C55.3043 41.6315 55.1379 41.8685 55.0298 42.1617C54.9218 42.4549 54.8678 42.7713 54.8678 43.1108C54.8678 43.4503 54.9218 43.7656 55.0298 44.0566C55.1379 44.3477 55.3043 44.5825 55.5292 44.761C55.7541 44.9396 56.0407 45.0289 56.389 45.0289ZM62.5012 47.529V40.5446H63.2552V41.3515H63.3478C63.4052 41.2633 63.4845 41.1509 63.5859 41.0142C63.6896 40.8753 63.8373 40.7518 64.0291 40.6438C64.2231 40.5335 64.4855 40.4784 64.8162 40.4784C65.2439 40.4784 65.6209 40.5854 65.9472 40.7992C66.2735 41.0131 66.5281 41.3162 66.7111 41.7086C66.8941 42.1011 66.9856 42.5641 66.9856 43.0976C66.9856 43.6355 66.8941 44.1018 66.7111 44.4965C66.5281 44.8889 66.2746 45.1932 65.9505 45.4092C65.6264 45.6231 65.2527 45.73 64.8294 45.73C64.5031 45.73 64.2418 45.676 64.0456 45.5679C63.8494 45.4577 63.6984 45.3331 63.5926 45.1943C63.4867 45.0532 63.4052 44.9363 63.3478 44.8437H63.2817V47.529H62.5012ZM63.2685 43.0844C63.2685 43.468 63.3247 43.8064 63.4371 44.0996C63.5496 44.3906 63.7138 44.6188 63.9299 44.7842C64.1459 44.9473 64.4105 45.0289 64.7236 45.0289C65.0499 45.0289 65.3221 44.9429 65.5404 44.771C65.7609 44.5968 65.9262 44.3631 66.0365 44.0699C66.1489 43.7744 66.2051 43.4459 66.2051 43.0844C66.2051 42.7272 66.15 42.4053 66.0398 42.1187C65.9317 41.8299 65.7675 41.6017 65.547 41.4342C65.3287 41.2644 65.0543 41.1795 64.7236 41.1795C64.4061 41.1795 64.1393 41.26 63.9233 41.4209C63.7072 41.5797 63.5441 41.8023 63.4338 42.089C63.3236 42.3734 63.2685 42.7052 63.2685 43.0844ZM70.3058 45.73C69.8164 45.73 69.3942 45.622 69.0392 45.4059C68.6865 45.1876 68.4142 44.8834 68.2224 44.4932C68.0328 44.1007 67.938 43.6444 67.938 43.1241C67.938 42.6037 68.0328 42.1452 68.2224 41.7483C68.4142 41.3493 68.681 41.0384 69.0227 40.8157C69.3666 40.5909 69.7679 40.4784 70.2265 40.4784C70.491 40.4784 70.7523 40.5225 71.0102 40.6107C71.2682 40.6989 71.503 40.8422 71.7146 41.0406C71.9263 41.2368 72.0949 41.497 72.2206 41.8211C72.3463 42.1452 72.4091 42.5442 72.4091 43.0182V43.3489H68.4936V42.6743H71.6154C71.6154 42.3877 71.5581 42.1319 71.4435 41.9071C71.331 41.6822 71.1701 41.5047 70.9606 41.3746C70.7534 41.2446 70.5087 41.1795 70.2265 41.1795C69.9156 41.1795 69.6466 41.2567 69.4195 41.411C69.1947 41.5631 69.0216 41.7616 68.9003 42.0063C68.7791 42.251 68.7185 42.5134 68.7185 42.7933V43.2431C68.7185 43.6267 68.7846 43.9519 68.9169 44.2187C69.0514 44.4832 69.2377 44.685 69.4758 44.8239C69.7139 44.9606 69.9906 45.0289 70.3058 45.0289C70.5109 45.0289 70.6961 45.0002 70.8614 44.9429C71.029 44.8834 71.1734 44.7952 71.2946 44.6784C71.4159 44.5593 71.5096 44.4116 71.5757 44.2352L72.3297 44.4469C72.2504 44.7026 72.117 44.9275 71.9296 45.1215C71.7422 45.3133 71.5107 45.4632 71.2351 45.5713C70.9595 45.6771 70.6498 45.73 70.3058 45.73ZM74.3768 38.8514V45.6242H73.5963V38.8514H74.3768ZM77.8698 45.73C77.4113 45.73 77.0089 45.6209 76.6628 45.4026C76.3188 45.1843 76.0499 44.879 75.8559 44.4865C75.6641 44.0941 75.5681 43.6355 75.5681 43.1108C75.5681 42.5817 75.6641 42.1198 75.8559 41.7252C76.0499 41.3305 76.3188 41.0241 76.6628 40.8058C77.0089 40.5876 77.4113 40.4784 77.8698 40.4784C78.3284 40.4784 78.7297 40.5876 79.0736 40.8058C79.4197 41.0241 79.6887 41.3305 79.8805 41.7252C80.0745 42.1198 80.1715 42.5817 80.1715 43.1108C80.1715 43.6355 80.0745 44.0941 79.8805 44.4865C79.6887 44.879 79.4197 45.1843 79.0736 45.4026C78.7297 45.6209 78.3284 45.73 77.8698 45.73ZM77.8698 45.0289C78.2182 45.0289 78.5048 44.9396 78.7297 44.761C78.9545 44.5825 79.121 44.3477 79.229 44.0566C79.3371 43.7656 79.3911 43.4503 79.3911 43.1108C79.3911 42.7713 79.3371 42.4549 79.229 42.1617C79.121 41.8685 78.9545 41.6315 78.7297 41.4507C78.5048 41.2699 78.2182 41.1795 77.8698 41.1795C77.5215 41.1795 77.2349 41.2699 77.01 41.4507C76.7851 41.6315 76.6187 41.8685 76.5107 42.1617C76.4026 42.4549 76.3486 42.7713 76.3486 43.1108C76.3486 43.4503 76.4026 43.7656 76.5107 44.0566C76.6187 44.3477 76.7851 44.5825 77.01 44.761C77.2349 44.9396 77.5215 45.0289 77.8698 45.0289ZM88.7177 40.9679C88.645 40.7452 88.5491 40.5457 88.43 40.3693C88.3132 40.1907 88.1732 40.0386 88.01 39.9129C87.8491 39.7873 87.6661 39.6914 87.4611 39.6252C87.256 39.5591 87.0311 39.526 86.7864 39.526C86.3852 39.526 86.0203 39.6296 85.6918 39.8369C85.3633 40.0441 85.102 40.3495 84.908 40.7529C84.714 41.1564 84.617 41.6513 84.617 42.2378C84.617 42.8242 84.7151 43.3192 84.9113 43.7226C85.1076 44.1261 85.3732 44.4314 85.7083 44.6387C86.0434 44.8459 86.4204 44.9495 86.8393 44.9495C87.2274 44.9495 87.5691 44.8669 87.8645 44.7015C88.1621 44.534 88.3936 44.298 88.559 43.9938C88.7265 43.6874 88.8103 43.3269 88.8103 42.9124L89.0617 42.9653H87.0245V42.2378H89.604V42.9653C89.604 43.5231 89.485 44.0081 89.2469 44.4204C89.0109 44.8327 88.6847 45.1524 88.268 45.3794C87.8535 45.6043 87.3773 45.7168 86.8393 45.7168C86.2397 45.7168 85.7127 45.5757 85.2586 45.2935C84.8066 45.0113 84.4539 44.61 84.2003 44.0897C83.949 43.5694 83.8233 42.9521 83.8233 42.2378C83.8233 41.702 83.895 41.2203 84.0383 40.7926C84.1838 40.3627 84.3888 39.9967 84.6534 39.6947C84.9179 39.3926 85.231 39.1611 85.5926 39.0002C85.9542 38.8392 86.3521 38.7588 86.7864 38.7588C87.1436 38.7588 87.4765 38.8128 87.7851 38.9208C88.096 39.0266 88.3727 39.1777 88.6152 39.3739C88.8599 39.5679 89.0639 39.8005 89.227 40.0717C89.3902 40.3406 89.5026 40.6394 89.5643 40.9679H88.7177ZM90.9028 45.6242V40.5446H91.6569V41.3118H91.7098C91.8024 41.0605 91.9699 40.8565 92.2124 40.7C92.4549 40.5435 92.7283 40.4652 93.0326 40.4652C93.0899 40.4652 93.1616 40.4663 93.2475 40.4685C93.3335 40.4707 93.3986 40.474 93.4426 40.4784V41.2721C93.4162 41.2655 93.3556 41.2556 93.2608 41.2424C93.1682 41.2269 93.0701 41.2192 92.9664 41.2192C92.7195 41.2192 92.499 41.271 92.305 41.3746C92.1132 41.476 91.9611 41.6171 91.8487 41.7979C91.7384 41.9765 91.6833 42.1804 91.6833 42.4097V45.6242H90.9028ZM97.569 43.5474V40.5446H98.3495V45.6242H97.569V44.7643H97.5161C97.397 45.0223 97.2118 45.2417 96.9605 45.4224C96.7092 45.601 96.3917 45.6903 96.0081 45.6903C95.6906 45.6903 95.4084 45.6209 95.1615 45.482C94.9146 45.3409 94.7205 45.1292 94.5794 44.847C94.4383 44.5626 94.3678 44.2043 94.3678 43.7722V40.5446H95.1483V43.7193C95.1483 44.0897 95.2519 44.3851 95.4591 44.6056C95.6686 44.8261 95.9353 44.9363 96.2594 44.9363C96.4534 44.9363 96.6507 44.8867 96.8514 44.7875C97.0542 44.6883 97.224 44.5362 97.3607 44.3311C97.4996 44.1261 97.569 43.8648 97.569 43.5474ZM99.7789 47.529V40.5446H100.533V41.3515H100.626C100.683 41.2633 100.762 41.1509 100.864 41.0142C100.967 40.8753 101.115 40.7518 101.307 40.6438C101.501 40.5335 101.763 40.4784 102.094 40.4784C102.522 40.4784 102.899 40.5854 103.225 40.7992C103.551 41.0131 103.806 41.3162 103.989 41.7086C104.172 42.1011 104.263 42.5641 104.263 43.0976C104.263 43.6355 104.172 44.1018 103.989 44.4965C103.806 44.8889 103.552 45.1932 103.228 45.4092C102.904 45.6231 102.53 45.73 102.107 45.73C101.781 45.73 101.52 45.676 101.323 45.5679C101.127 45.4577 100.976 45.3331 100.87 45.1943C100.764 45.0532 100.683 44.9363 100.626 44.8437H100.559V47.529H99.7789ZM100.546 43.0844C100.546 43.468 100.602 43.8064 100.715 44.0996C100.827 44.3906 100.992 44.6188 101.208 44.7842C101.424 44.9473 101.688 45.0289 102.001 45.0289C102.328 45.0289 102.6 44.9429 102.818 44.771C103.039 44.5968 103.204 44.3631 103.314 44.0699C103.427 43.7744 103.483 43.4459 103.483 43.0844C103.483 42.7272 103.428 42.4053 103.317 42.1187C103.209 41.8299 103.045 41.6017 102.825 41.4342C102.606 41.2644 102.332 41.1795 102.001 41.1795C101.684 41.1795 101.417 41.26 101.201 41.4209C100.985 41.5797 100.822 41.8023 100.712 42.089C100.601 42.3734 100.546 42.7052 100.546 43.0844ZM107.517 45.73C107.059 45.73 106.656 45.6209 106.31 45.4026C105.966 45.1843 105.697 44.879 105.503 44.4865C105.312 44.0941 105.216 43.6355 105.216 43.1108C105.216 42.5817 105.312 42.1198 105.503 41.7252C105.697 41.3305 105.966 41.0241 106.31 40.8058C106.656 40.5876 107.059 40.4784 107.517 40.4784C107.976 40.4784 108.377 40.5876 108.721 40.8058C109.067 41.0241 109.336 41.3305 109.528 41.7252C109.722 42.1198 109.819 42.5817 109.819 43.1108C109.819 43.6355 109.722 44.0941 109.528 44.4865C109.336 44.879 109.067 45.1843 108.721 45.4026C108.377 45.6209 107.976 45.73 107.517 45.73ZM107.517 45.0289C107.866 45.0289 108.152 44.9396 108.377 44.761C108.602 44.5825 108.769 44.3477 108.877 44.0566C108.985 43.7656 109.039 43.4503 109.039 43.1108C109.039 42.7713 108.985 42.4549 108.877 42.1617C108.769 41.8685 108.602 41.6315 108.377 41.4507C108.152 41.2699 107.866 41.1795 107.517 41.1795C107.169 41.1795 106.882 41.2699 106.658 41.4507C106.433 41.6315 106.266 41.8685 106.158 42.1617C106.05 42.4549 105.996 42.7713 105.996 43.1108C105.996 43.4503 106.05 43.7656 106.158 44.0566C106.266 44.3477 106.433 44.5825 106.658 44.761C106.882 44.9396 107.169 45.0289 107.517 45.0289ZM114.82 40.5446C114.78 40.2095 114.619 39.9493 114.337 39.7641C114.055 39.5789 113.709 39.4863 113.299 39.4863C112.999 39.4863 112.737 39.5348 112.512 39.6318C112.289 39.7288 112.115 39.8622 111.989 40.032C111.866 40.2017 111.804 40.3946 111.804 40.6107C111.804 40.7915 111.847 40.9469 111.933 41.077C112.021 41.2049 112.134 41.3118 112.27 41.3978C112.407 41.4816 112.55 41.551 112.7 41.6061C112.85 41.659 112.988 41.702 113.114 41.7351L113.802 41.9203C113.978 41.9666 114.174 42.0305 114.39 42.1121C114.608 42.1937 114.817 42.305 115.015 42.4461C115.216 42.585 115.381 42.7636 115.511 42.9819C115.641 43.2001 115.706 43.468 115.706 43.7855C115.706 44.1514 115.611 44.4821 115.419 44.7776C115.229 45.073 114.951 45.3078 114.585 45.482C114.222 45.6561 113.78 45.7432 113.259 45.7432C112.774 45.7432 112.354 45.665 111.999 45.5084C111.646 45.3519 111.369 45.1336 111.166 44.8536C110.965 44.5736 110.852 44.2484 110.825 43.8781H111.672C111.694 44.1338 111.78 44.3454 111.93 44.513C112.082 44.6784 112.274 44.8018 112.505 44.8834C112.739 44.9628 112.99 45.0024 113.259 45.0024C113.572 45.0024 113.853 44.9517 114.102 44.8503C114.352 44.7467 114.549 44.6034 114.694 44.4204C114.84 44.2352 114.913 44.0192 114.913 43.7722C114.913 43.5474 114.85 43.3644 114.724 43.2233C114.599 43.0822 114.433 42.9675 114.228 42.8793C114.023 42.7911 113.802 42.714 113.563 42.6478L112.73 42.4097C112.201 42.2576 111.782 42.0404 111.473 41.7582C111.165 41.476 111.01 41.1068 111.01 40.6504C111.01 40.2712 111.113 39.9405 111.318 39.6583C111.525 39.3739 111.803 39.1534 112.151 38.9969C112.502 38.8381 112.893 38.7588 113.325 38.7588C113.762 38.7588 114.15 38.837 114.489 38.9936C114.829 39.1479 115.098 39.3595 115.296 39.6285C115.497 39.8975 115.603 40.2028 115.614 40.5446H114.82ZM117.333 45.6242H116.473L118.96 38.8514H119.806L122.293 45.6242H121.433L119.409 39.9228H119.357L117.333 45.6242ZM117.65 42.9785H121.116V43.7061H117.65V42.9785ZM124.168 38.8514V45.6242H123.348V38.8514H124.168ZM125.442 39.5789V38.8514H130.522V39.5789H128.392V45.6242H127.572V39.5789H125.442ZM131.788 45.6242V38.8514H135.875V39.5789H132.608V41.8674H135.664V42.5949H132.608V44.8966H135.928V45.6242H131.788Z" fill="white"/>
<path d="M45.5752 16.5882V21.1076C44.148 20.3113 42.6899 19.9286 41.3351 19.9286C39.9803 19.9286 39.4219 20.3423 39.4219 20.9731C39.4219 22.9587 46.6921 21.9142 46.6921 27.8193C46.6921 31.6768 43.4965 33.2488 40.0837 33.2074C37.4776 33.1764 35.492 32.8247 33.8891 31.9871V27.2195C35.2128 28.0572 37.126 28.5743 38.8944 28.5743C40.1148 28.5743 40.9835 28.3261 40.9835 27.5608C40.9835 25.6476 33.7132 26.7231 33.7132 20.849C33.7132 17.6534 35.9781 15.523 40.4974 15.523C42.452 15.5437 44.0136 15.8953 45.5752 16.5882Z" fill="white"/>
<path d="M61.6771 28.8018V32.6283C60.8084 32.8765 60.0121 33.0109 58.9676 33.0109C57.6128 33.0109 56.3925 32.6283 55.6272 31.7906C54.4069 32.8041 52.8763 33.2178 51.2113 33.2178C48.357 33.2178 45.8543 31.5527 45.8543 27.9642C45.8543 24.4893 48.388 22.6795 52.08 22.6795C52.9487 22.6795 53.6106 22.7519 54.5827 22.9898V22.2555C54.5827 21.0352 53.9208 20.2389 52.0076 20.2389C50.1978 20.2389 48.2846 20.6939 46.8988 21.2524V16.5572C48.6052 15.9678 50.8286 15.5437 52.5971 15.5437C57.2922 15.5437 60.1776 17.2812 60.1776 22.6071V27.8194C60.1776 28.5847 60.5292 28.8639 61.1187 28.8639C61.2945 28.8639 61.5013 28.8329 61.6771 28.8018ZM54.5827 29.0087V26.1233C54.169 26.0199 53.8174 25.9475 53.3624 25.9475C52.08 25.9475 51.2733 26.4646 51.2733 27.8607C51.2733 29.1431 52.0076 29.6292 52.8349 29.6292C53.5795 29.6292 54.0966 29.4534 54.5827 29.0087Z" fill="white"/>
<path d="M60.7363 10.8486C60.7363 8.68718 62.2669 7.78745 63.9732 7.78745C65.6796 7.78745 67.1688 8.68718 67.1688 10.8486C67.1688 12.9997 65.6693 13.9821 63.9732 13.9821C62.2669 13.9821 60.7363 13.01 60.7363 10.8486ZM61.1189 16.0298H66.8172V32.7213H61.1189V16.0298Z" fill="white"/>
<path d="M68.6374 27.5091V20.9318H66.5484V16.0298H68.6374V12.131L74.3357 10.8073V16.0195H77.6347V20.9215H74.3357V26.4543C74.3357 27.7367 74.8218 28.2951 75.9697 28.2951C76.5281 28.2951 77.1176 28.1917 77.6347 27.9435V32.6076C76.6936 33.0213 75.7525 33.1971 74.2633 33.1971C71.9364 33.2178 68.6374 32.1319 68.6374 27.5091Z" fill="white"/>
<path d="M76.8799 24.3756C76.8799 18.8428 79.7342 15.5437 84.5638 15.5437C89.2589 15.5437 92.3201 19.2668 91.7616 26.4336H82.785C83.24 28.3158 84.5224 29.0397 86.5804 29.0397C88.142 29.0397 89.3934 28.8329 90.7895 28.3054V32.3077C89.4347 32.8972 87.8317 33.2074 85.7117 33.2074C80.0755 33.2178 76.8799 29.9498 76.8799 24.3756ZM86.539 22.9898C86.508 21.0766 85.9806 20.0321 84.6982 20.0321C83.3434 20.0321 82.6816 21.0766 82.5471 22.9898H86.539Z" fill="white"/>
<path d="M107.016 28.8018V32.6283C106.147 32.8765 105.351 33.0109 104.306 33.0109C102.952 33.0109 101.731 32.6283 100.966 31.7906C99.7457 32.8041 98.2152 33.2177 96.5502 33.2177C93.6958 33.2177 91.1931 31.5527 91.1931 27.9641C91.1931 24.4893 93.7269 22.6795 97.4189 22.6795C98.2876 22.6795 98.9494 22.7519 99.9216 22.9898V22.2555C99.9216 21.0352 99.2597 20.2389 97.3465 20.2389C95.5367 20.2389 93.6234 20.6939 92.2377 21.2524V16.5572C93.944 15.9677 96.1675 15.5437 97.9359 15.5437C102.631 15.5437 105.516 17.2811 105.516 22.6071V27.8194C105.516 28.5846 105.868 28.8639 106.458 28.8639C106.633 28.8639 106.84 28.8328 107.016 28.8018ZM99.9216 29.0087V26.1233C99.5079 26.0199 99.1563 25.9475 98.7012 25.9475C97.4189 25.9475 96.6122 26.4646 96.6122 27.8607C96.6122 29.1431 97.3465 29.6292 98.1738 29.6292C98.9184 29.6292 99.4355 29.4533 99.9216 29.0087Z" fill="white"/>
<path d="M104.441 16.0296H110.739L112.445 23.4343C112.725 24.7167 112.9 26.0818 113.035 27.54C113.169 26.0818 113.387 24.727 113.666 23.4343L115.372 16.0296H121.629L115.931 32.7212H110.191L104.441 16.0296Z" fill="white"/>
<path d="M136.614 28.8018V32.6282C135.746 32.8764 134.949 33.0109 133.905 33.0109C132.55 33.0109 131.33 32.6282 130.564 31.7905C129.344 32.804 127.813 33.2177 126.148 33.2177C123.294 33.2177 120.791 31.5527 120.791 27.9641C120.791 24.4893 123.325 22.6795 127.017 22.6795C127.886 22.6795 128.548 22.7519 129.52 22.9897V22.2555C129.52 21.0352 128.858 20.2388 126.945 20.2388C125.135 20.2388 123.222 20.6939 121.836 21.2523V16.5572C123.542 15.9677 125.766 15.5437 127.534 15.5437C132.229 15.5437 135.115 17.2811 135.115 22.6071V27.8193C135.115 28.5846 135.466 28.8638 136.056 28.8638C136.232 28.8638 136.438 28.8328 136.614 28.8018ZM129.52 29.0086V26.1233C129.106 26.0199 128.755 25.9475 128.299 25.9475C127.017 25.9475 126.21 26.4646 126.21 27.8607C126.21 29.1431 126.945 29.6291 127.772 29.6291C128.506 29.6291 129.023 29.4533 129.52 29.0086Z" fill="white"/>
<path d="M1.189 0.67226H7.8801C8.43855 0.67226 8.83154 1.21003 8.66607 1.7478L1.97497 22.8449C1.6854 23.7446 0.361664 23.5378 0.361664 22.5967V1.48926C0.361664 1.03422 0.733966 0.67226 1.189 0.67226Z" fill="white"/>
<path d="M28.2116 12.1514H21.5205C20.9621 12.1514 20.5691 12.6892 20.7345 13.227L27.4256 34.3241C27.7152 35.2238 29.0389 35.017 29.0389 34.0759V12.9788C29.0286 12.5134 28.6666 12.1514 28.2116 12.1514Z" fill="white"/>
<path d="M14.8401 24.3962H9.77266C9.22455 24.3962 8.83156 23.8687 8.97635 23.3517L10.6 17.6017C10.9309 16.34 11.2308 15.0473 11.4997 13.6822C11.6755 12.8031 12.9269 12.8031 13.113 13.6822C13.4026 15.0473 13.7129 16.34 14.0438 17.6017L15.6261 23.3517C15.7812 23.8791 15.3779 24.3962 14.8401 24.3962Z" fill="white"/>
<path d="M18.118 29.9807L19.0177 33.259C19.1625 33.7864 18.7695 34.3035 18.2214 34.3035H6.4215C5.87339 34.3035 5.4804 33.7864 5.62519 33.259L6.52492 29.9807C6.62833 29.6187 6.94893 29.3705 7.32123 29.3705H17.332C17.694 29.3705 18.0249 29.6187 18.118 29.9807Z" fill="white"/>
<path d="M152.276 9.93103L152.276 43.0345" stroke="white" stroke-miterlimit="10"/>
</svg>
