<svg width="118" height="44" viewBox="0 0 118 44" fill="none" xmlns="http://www.w3.org/2000/svg">
<path d="M36.4637 18.0296V8.10609H39.82V17.7388C39.82 18.8535 40.341 19.7865 42.1222 19.7865C43.9033 19.7865 44.4243 18.8414 44.4243 17.7388V8.10609H47.7806V18.0296C47.7806 21.1678 45.3573 23.058 42.1222 23.058C38.8991 23.058 36.4637 21.1799 36.4637 18.0296Z" fill="white"/>
<path d="M60.636 8.10609V22.7672H58.1278L52.4694 14.8066V22.7672H49.1131V8.10609H51.6212L57.2797 16.0667V8.10609H60.636Z" fill="white"/>
<path d="M71.2019 20.465H65.7616L65.0346 22.7672H61.3754L66.3553 8.10609H70.6325L75.6124 22.7672H71.9532L71.2019 20.465ZM70.1963 17.3147L68.4757 11.9349L66.7551 17.3147H70.1963Z" fill="white"/>
<path d="M75.6973 14.4673H80.2652V17.4844H75.6973V14.4673Z" fill="white"/>
<path d="M80.9315 19.4351L83.8274 17.763C84.3484 18.9746 85.2571 19.7986 86.905 19.7986C88.4923 19.7986 88.8921 19.1685 88.8921 18.6111C88.8921 17.7145 88.0561 17.351 85.8509 16.7452C83.6699 16.1393 81.5373 15.0852 81.5373 12.2863C81.5373 9.4631 83.9243 7.82736 86.4567 7.82736C88.8679 7.82736 90.746 8.97844 91.8122 11.1352L88.989 12.7952C88.4923 11.7531 87.8016 11.0988 86.4567 11.0988C85.4147 11.0988 84.8815 11.6199 84.8815 12.2136C84.8815 12.88 85.2329 13.3404 87.5229 14.0311C89.7403 14.6975 92.2363 15.4729 92.2363 18.5748C92.2363 21.3979 89.9705 23.0822 86.7959 23.0822C83.7062 23.0579 81.7433 21.5918 80.9315 19.4351Z" fill="white"/>
<path d="M93.5809 18.0296V8.10609H96.9372V17.7388C96.9372 18.8535 97.4582 19.7865 99.2393 19.7865C101.02 19.7865 101.542 18.8414 101.542 17.7388V8.10609H104.898V18.0296C104.898 21.1678 102.462 23.058 99.2393 23.058C96.0042 23.058 93.5809 21.1799 93.5809 18.0296Z" fill="white"/>
<path d="M105.855 19.4351L108.751 17.763C109.272 18.9746 110.181 19.7986 111.829 19.7986C113.416 19.7986 113.816 19.1685 113.816 18.6111C113.816 17.7145 112.98 17.351 110.775 16.7452C108.594 16.1393 106.461 15.0852 106.461 12.2863C106.461 9.4631 108.848 7.82736 111.38 7.82736C113.792 7.82736 115.67 8.97844 116.736 11.1352L113.913 12.7952C113.416 11.7531 112.725 11.0988 111.38 11.0988C110.338 11.0988 109.805 11.6199 109.805 12.2136C109.805 12.88 110.157 13.3404 112.447 14.0311C114.664 14.6975 117.16 15.4729 117.16 18.5748C117.16 21.3979 114.894 23.0822 111.72 23.0822C108.642 23.0579 106.679 21.5918 105.855 19.4351Z" fill="white"/>
<path d="M36.4637 35.3805V25.457H39.82V35.0897C39.82 36.2044 40.341 37.1374 42.1222 37.1374C43.9033 37.1374 44.4243 36.1923 44.4243 35.0897V25.457H47.7806V35.3805C47.7806 38.5187 45.3573 40.4089 42.1222 40.4089C38.8991 40.4089 36.4637 38.5308 36.4637 35.3805Z" fill="white"/>
<path d="M52.4577 28.68V31.5032H57.898V34.7262H52.4577V40.1059H49.1014V25.4449H58.0071V28.6679H52.4577V28.68Z" fill="white"/>
<path d="M73.9889 40.1181H70.6326V31.6001L66.8401 37.8159H66.4645L62.672 31.6001V40.1181H59.3157V25.457H62.672L66.6462 31.9757L70.6205 25.457H73.9768V40.1181H73.9889Z" fill="white"/>
<path d="M84.8696 37.8159H79.4293L78.7023 40.1181H75.0431L80.023 25.457H84.3001L89.2801 40.1181H85.6208L84.8696 37.8159ZM83.8639 34.6777L82.1434 29.2979L80.4228 34.6777H83.8639Z" fill="white"/>
<path d="M15.4903 33.0782C15.3812 33.1025 15.2843 33.1146 15.1752 33.1267C15.151 33.1267 15.1389 33.1267 15.1147 33.1388C14.9571 33.1509 14.7996 33.1631 14.6421 33.1631C14.5331 33.1631 14.424 33.1631 14.315 33.1509C14.0969 33.1388 13.8909 33.1025 13.6849 33.054C12.1946 32.7511 11.31 31.8908 10.7769 30.9942C10.2922 30.1703 10.1226 29.3221 10.0499 28.8617C10.0378 28.8011 10.0257 28.7405 10.0257 28.6678C10.0257 28.5709 10.0136 28.4739 10.0136 28.3649V21.9189V3.23508L6.30588 5.01622L3.41002 6.40963C1.4956 7.33049 0.283936 9.25703 0.283936 11.3774V21.7371V22.9003V25.7841V28.4982V29.3342C0.283936 29.3342 0.465698 32.218 1.47137 34.2293C2.50129 36.6042 3.96739 38.5792 6.02721 40.0816C6.58457 40.0816 7.14193 40.0332 7.68717 39.9605C10.7648 39.5122 13.6001 37.8643 15.5145 35.4168C16.1809 34.5686 16.6898 33.6598 17.1018 32.6905C17.1381 32.5936 17.1745 32.4845 17.2108 32.3876C16.7746 32.6542 16.193 32.945 15.4903 33.0782Z" fill="white"/>
<path d="M15.2961 33.8779C14.9568 33.8658 14.6297 33.8295 14.3389 33.7689C14.5448 33.8174 14.7508 33.8537 14.9689 33.8658C15.078 33.8658 15.187 33.8779 15.2961 33.8779Z" fill="white"/>
<path d="M27.8124 0L23.402 2.1931L22.3236 2.72623C20.1305 3.81673 18.7492 6.04618 18.7492 8.49373V8.72395V13.1102C18.7492 17.4964 18.7492 21.8705 18.7492 26.2567V28.7406C18.7371 29.4312 18.6765 30.1097 18.5554 30.7883C18.3615 31.6243 18.1313 32.3877 17.8526 33.1025C17.8163 33.1995 17.7799 33.3085 17.7436 33.4054C17.3316 34.3748 16.8227 35.2835 16.1563 36.1317C14.2419 38.5792 11.4066 40.2271 8.32896 40.6754C7.78372 40.7602 7.22636 40.7966 6.66899 40.7966C6.65688 40.7966 6.65687 40.7966 6.64476 40.7966C6.60841 40.7966 6.5963 40.7966 6.5963 40.7966C6.60841 40.7966 6.62052 40.8087 6.64476 40.8087C6.64476 40.8208 6.64476 40.8208 6.64476 40.8329C7.58985 41.4993 8.63189 42.0446 9.74662 42.4565C11.2975 43.026 12.9696 43.3411 14.7265 43.2926C22.0692 43.123 27.8488 36.9193 27.8488 29.5645V2.43544V0.0242332C27.8488 0 27.8246 0 27.8124 0Z" fill="white"/>
<path d="M30.3205 1.57516L28.5273 2.43544V29.5766C28.5273 32.3634 27.6912 34.9806 26.2615 37.1737C26.2615 37.1737 23.6443 42.2748 16.0472 43.8378C16.2653 43.85 16.4834 43.8621 16.7015 43.8621C25.3527 43.8621 32.3682 36.5315 32.3682 27.5047V0.593716L30.3205 1.57516Z" fill="white"/>
</svg>
