<svg width="16" height="16" viewBox="0 0 16 16" fill="none" xmlns="http://www.w3.org/2000/svg">
<path d="M8.00649 1V14.817M15 8H1.01299M14.998 12.998L14.988 2.998C14.9875 2.46791 14.7767 1.95972 14.4021 1.58508C14.0274 1.21044 13.5195 1 12.9899 1H2.99914C2.49504 0.99984 2.0095 1.19041 1.63986 1.5335C1.27022 1.87659 1.0438 2.34684 1.00599 2.85L1 3.002L1.00999 13.002C1.01052 13.5321 1.22127 14.0403 1.59594 14.4149C1.97061 14.7896 2.47854 15 3.00814 15H12.9989C13.503 15.0002 13.9885 14.8096 14.3581 14.4665C14.7278 14.1234 14.9542 13.6532 14.992 13.15L14.998 12.998Z" stroke="#0A0A0A" stroke-width="1.5" stroke-linecap="round" stroke-linejoin="round"/>
</svg>
