<svg width="13" height="16" viewBox="0 0 13 16" fill="none" xmlns="http://www.w3.org/2000/svg">
<path fill-rule="evenodd" clip-rule="evenodd" d="M1.99807 1.99807C2.13913 1.85702 2.33044 1.77778 2.52991 1.77778H5.46973V3.49915V5.26495C5.46973 5.79085 5.67864 6.29521 6.05051 6.66708C6.42237 7.03894 6.92673 7.24786 7.45263 7.24786H10.9402V13.4701C10.9402 13.6696 10.8609 13.8609 10.7199 14.0019C10.5788 14.143 10.3875 14.2222 10.188 14.2222H2.52991C2.33044 14.2222 2.13913 14.143 1.99807 14.0019C1.85702 13.8609 1.77778 13.6696 1.77778 13.4701V2.52991C1.77778 2.33044 1.85702 2.13913 1.99807 1.99807ZM9.68309 5.47008L7.2475 3.0345V4.5401V5.26495C7.2475 5.31935 7.26912 5.37153 7.30759 5.41C7.34605 5.44847 7.39823 5.47008 7.45263 5.47008H8.83574H9.68309ZM2.52991 0C1.85894 0 1.21545 0.266544 0.740995 0.740995C0.266544 1.21545 0 1.85894 0 2.52991V13.4701C0 14.1411 0.266544 14.7846 0.740995 15.259C1.21545 15.7335 1.85894 16 2.52991 16H10.188C10.859 16 11.5025 15.7335 11.977 15.259C12.4514 14.7846 12.7179 14.1411 12.7179 13.4701V6.81183C12.7179 6.28612 12.509 5.78187 12.1373 5.41009L7.30778 0.58062C6.936 0.208924 6.4317 7.94199e-05 5.90598 0H2.52991Z" fill="#0A0A0A"/>
</svg>
